# xmcd
#
# Track frame offsets: 
#        150
#        20495
#        37761
#        62703
#        79732
#        110484
#        130223
#        149948
#        165932
#        183497
#        199593
#        221672
#        237907
#
# Disc length: 3377 seconds
#
# Revision: 0
# Processed by: cddbd v1.5.2PL0 Copyright (c) Steve Scherf et al.
# Submitted via: ExactAudioCopy v1.3
#
DISCID=b50d2f0d
DTITLE=4Glory - Back In Life
DYEAR=2018
DGENRE=Blues Rock
TTITLE0=Tastes Like Love
TTITLE1=Too Much Traffic
TTITLE2=Back In Life
TTITLE3=Don't Follow Me
TTITLE4=Black Flowers
TTITLE5=Outlaw Life
TTITLE6=No More Sunshine
TTITLE7=Ain't Looking Back
TTITLE8=Living For Rock 'N Roll
TTITLE9=Tell Me If I'm Alive
TTITLE10=Another Chance
TTITLE11='ll Get Mad At You
TTITLE12=Blues In The Rain
EXTD=
EXTT0=
EXTT1=
EXTT2=
EXTT3=
EXTT4=
EXTT5=
EXTT6=
EXTT7=
EXTT8=
EXTT9=
EXTT10=
EXTT11=
EXTT12=
PLAYORDER=
